# Blender 3.1.0
# www.blender.org
mtllib sword.mtl
o Cube
v -0.540625 -1.403359 0.529249
v -0.540625 1.403359 0.653124
v -0.540625 -1.403359 -0.529249
v -0.540625 1.403359 -0.653124
v 0.541291 -1.403359 0.529249
v 0.541291 1.403359 0.653124
v 0.541291 -1.403359 -0.529249
v 0.541291 1.403359 -0.653124
v -0.540625 0.583214 0.529249
v -0.540625 0.583214 -0.529249
v 0.541291 0.583214 -0.529249
v 0.541291 0.583214 0.529249
v -0.540625 0.583214 0.653124
v -0.540625 0.583214 -0.653124
v 0.541291 0.583214 -0.653124
v 0.541291 0.583214 0.653124
v -0.540625 0.583214 1.759975
v -0.540625 1.403359 1.759975
v 0.541291 1.403359 1.759975
v 0.541291 0.583214 1.759975
v -0.540625 -1.403359 0.000000
v -0.540625 1.403359 0.000000
v 0.541291 -1.403359 0.000000
v 0.541291 1.403359 0.000000
v 0.541291 0.583214 0.000000
v -0.540625 0.583214 0.000000
v 0.541291 0.583214 0.000000
v -0.540625 0.583214 0.000000
v -0.540625 0.583214 -1.759975
v -0.540625 1.403359 -1.759975
v 0.541291 1.403359 -1.759975
v 0.541291 0.583214 -1.759975
v 0.282616 4.772795 0.220490
v -0.263480 4.772795 0.220490
v 0.282616 4.772795 0.000056
v -0.263480 4.772795 0.000056
v -0.540625 1.403359 0.000000
v -0.540625 1.403359 0.653124
v 0.541291 1.403359 0.653124
v 0.541291 1.403359 0.000000
v 0.282616 4.772795 -0.220490
v -0.263480 4.772795 -0.220490
v 0.282616 4.772795 -0.000056
v -0.263480 4.772795 -0.000056
v -0.540625 1.403359 -0.653124
v 0.541291 1.403359 -0.653124
vn -0.0000 1.4034 -0.0000
vn -0.0000 -0.0000 -0.6531
vn 0.6531 -0.0000 -0.0000
vn -0.0000 -1.4034 -0.0000
vn -0.0000 -0.0000 0.6531
vn -0.6531 -0.0000 -0.0000
vn -0.0000 0.3732 0.6296
vn 0.6444 0.2284 -0.0000
vn -0.6432 0.2442 -0.0000
vn -0.0000 0.3732 -0.6296
vt 0.125000 0.750000
vt 0.375000 1.000000
vt 0.375000 0.000000
vt 0.875000 0.750000
vt 0.625000 0.000000
vt 0.375000 1.000000
vt 0.125000 0.750000
vt 0.375000 0.000000
vt 0.875000 0.750000
vt 0.625000 0.000000
vt 0.375000 0.750000
vt 0.625000 0.750000
vt 0.375000 0.750000
vt 0.625000 0.750000
vt 0.551948 1.000000
vt 0.551948 0.000000
vt 0.551948 1.000000
vt 0.551948 0.000000
vt 0.551948 0.750000
vt 0.551948 0.750000
vt 0.551948 1.000000
vt 0.551948 0.000000
vt 0.551948 1.000000
vt 0.551948 0.000000
vt 0.551948 0.750000
vt 0.551948 0.750000
vt 0.551948 1.000000
vt 0.551948 0.000000
vt 0.625000 1.000000
vt 0.875000 0.750000
vt 0.625000 0.000000
vt 0.625000 0.750000
vt 0.551948 0.750000
vt 0.125000 0.625000
vt 0.375000 0.125000
vt 0.875000 0.625000
vt 0.625000 0.125000
vt 0.375000 0.625000
vt 0.625000 0.625000
vt 0.551948 0.625000
vt 0.551948 0.125000
vt 0.551948 0.625000
vt 0.551948 0.125000
vt 0.551948 1.000000
vt 0.551948 0.000000
vt 0.875000 0.750000
vt 0.625000 1.000000
vt 0.625000 0.000000
vt 0.625000 0.750000
vt 0.551948 0.750000
vt 0.625000 0.750000
vt 0.875000 0.750000
vt 0.625000 0.000000
vt 0.625000 0.625000
vt 0.875000 0.625000
vt 0.625000 0.125000
vt 0.875000 0.625000
vt 0.625000 0.125000
vt 0.875000 0.750000
vt 0.625000 0.000000
vt 0.625000 0.750000
vt 0.625000 0.625000
vt 0.625000 0.750000
vt 0.875000 0.750000
vt 0.625000 0.000000
vt 0.625000 0.625000
vt 0.875000 0.625000
vt 0.625000 0.125000
vt 0.875000 0.750000
vt 0.625000 0.000000
vt 0.625000 0.750000
s 0
usemtl Wood
f 4/9/1 45/69/1 46/71/1 8/14/1
f 7/13/2 3/6/2 10/17/2 11/19/2
f 25/40/3 24/39/3 6/12/3 12/20/3
f 12/20/3 6/12/3 19/32/3 20/33/3
f 21/34/4 23/38/4 5/11/4 1/1/4
f 2/4/1 6/12/1 39/61/1 38/59/1
f 5/11/5 12/20/5 9/15/5 1/2/5
f 23/38/3 25/40/3 12/20/3 5/11/3
f 10/17/4 14/23/4 15/25/4 11/19/4
f 11/19/3 15/25/3 27/42/3 25/40/3
f 8/14/1 31/49/1 30/46/1 4/9/1
f 26/41/6 28/43/6 14/24/6 10/18/6
f 9/15/4 12/20/4 16/26/4 13/21/4
f 26/41/6 9/16/6 13/22/6 28/43/6
f 20/33/5 19/32/5 18/29/5 17/27/5
f 6/12/1 2/4/1 18/30/1 19/32/1
f 9/15/4 12/20/4 20/33/4 17/27/4
f 2/5/6 9/16/6 17/28/6 18/31/6
f 21/34/4 3/7/4 7/13/4 23/38/4
f 12/20/3 25/40/3 27/42/3 16/26/3
f 32/50/2 29/44/2 30/47/2 31/49/2
f 10/17/4 29/44/4 32/50/4 11/19/4
f 9/16/6 2/5/6 22/37/6 26/41/6
f 11/19/3 32/50/3 31/49/3 8/14/3
f 23/38/3 7/13/3 11/19/3 25/40/3
f 1/3/6 9/16/6 26/41/6 21/35/6
f 10/18/6 26/41/6 22/37/6 4/10/6
f 4/10/6 30/48/6 29/45/6 10/18/6
f 8/14/1 46/71/1 40/62/1 24/39/1
f 25/40/3 11/19/3 8/14/3 24/39/3
usemtl Metal
f 38/59/7 39/61/7 33/51/7 34/52/7
usemtl Wood
f 24/39/1 22/36/1 37/57/1 40/62/1
f 6/12/1 24/39/1 40/62/1 39/61/1
f 22/37/1 2/5/1 38/60/1 37/58/1
usemtl Metal
f 35/54/1 36/55/1 34/52/1 33/51/1
f 40/62/2 37/57/2 36/55/2 35/54/2
f 39/61/8 40/62/8 35/54/8 33/51/8
f 37/58/9 38/60/9 34/53/9 36/56/9
f 43/66/1 41/63/1 42/64/1 44/67/1
usemtl Wood
f 22/37/1 37/58/1 45/70/1 4/10/1
usemtl Metal
f 45/69/10 42/64/10 41/63/10 46/71/10
usemtl Wood
f 3/8/6 21/35/6 26/41/6 10/18/6
usemtl Metal
f 40/62/5 43/66/5 44/67/5 37/57/5
f 46/71/8 41/63/8 43/66/8 40/62/8
f 37/58/9 44/68/9 42/65/9 45/70/9
